<svg width="15" height="16" viewBox="0 0 15 16" fill="none" xmlns="http://www.w3.org/2000/svg">
<path d="M1.69231 0H9.30769C9.75652 0 10.187 0.168571 10.5043 0.468629C10.8217 0.768687 11 1.17565 11 1.6V3.2H9.30769V1.6H1.69231V14.4H9.30769V12.8H11V14.4C11 14.8243 10.8217 15.2313 10.5043 15.5314C10.187 15.8314 9.75652 16 9.30769 16H1.69231C1.24348 16 0.813035 15.8314 0.495665 15.5314C0.178296 15.2313 0 14.8243 0 14.4V1.6C0 1.17565 0.178296 0.768687 0.495665 0.468629C0.813035 0.168571 1.24348 0 1.69231 0V0Z" fill="white"/>
<path d="M9.77704 10.872L10.9259 12L15 8L10.9259 4L9.77704 5.128L11.8793 7.2H4V8.8H11.8793L9.77704 10.872Z" fill="white"/>
</svg>
