<svg width="36" height="36" viewBox="0 0 36 36" fill="none" xmlns="http://www.w3.org/2000/svg">
<path d="M18 36C13 36 8.75 34.25 5.25 30.75C1.75 27.25 0 23 0 18C0 13 1.75 8.75 5.25 5.25C8.75 1.75 13 0 18 0C18.4667 0 18.9253 0.0166669 19.376 0.0500002C19.8253 0.0833335 20.2667 0.133333 20.7 0.2C19.3333 1.16667 18.242 2.42467 17.426 3.974C16.6087 5.52467 16.2 7.2 16.2 9C16.2 12 17.25 14.55 19.35 16.65C21.45 18.75 24 19.8 27 19.8C28.8333 19.8 30.5167 19.3913 32.05 18.574C33.5833 17.758 34.8333 16.6667 35.8 15.3C35.8667 15.7333 35.9167 16.1747 35.95 16.624C35.9833 17.0747 36 17.5333 36 18C36 23 34.25 27.25 30.75 30.75C27.25 34.25 23 36 18 36ZM18 32C20.9333 32 23.5667 31.192 25.9 29.576C28.2333 27.9587 29.9333 25.85 31 23.25C30.3333 23.4167 29.6667 23.55 29 23.65C28.3333 23.75 27.6667 23.8 27 23.8C22.9 23.8 19.408 22.3587 16.524 19.476C13.6413 16.592 12.2 13.1 12.2 9C12.2 8.33333 12.25 7.66667 12.35 7C12.45 6.33333 12.5833 5.66667 12.75 5C10.15 6.06667 8.042 7.76667 6.426 10.1C4.80867 12.4333 4 15.0667 4 18C4 21.8667 5.36667 25.1667 8.1 27.9C10.8333 30.6333 14.1333 32 18 32Z" fill="#686868"/>
</svg>
